<svg class="svg-icon" style="width: 1em; height: 1em;vertical-align: middle;fill: currentColor;overflow: hidden;" viewBox="0 0 1024 1024" version="1.1" xmlns="http://www.w3.org/2000/svg"><path d="M958.997333 298.666667v618.666666a85.333333 85.333333 0 0 1-85.333333 85.333334h-725.333333a85.333333 85.333333 0 0 1-85.333334-85.333334V106.666667a85.333333 85.333333 0 0 1 85.333334-85.333334h577.92l1.130666 1.130667a10.026667 10.026667 0 0 1 10.304 1.984l196.608 198.613333a10.069333 10.069333 0 0 1 2.56 8.874667l22.144 22.144v41.749333l1.877334 2.837334h-1.877334z m-42.666666-44.245334a10.154667 10.154667 0 0 1-12.202667-1.194666l-179.797333-181.610667V213.333333a42.666667 42.666667 0 0 0 42.666666 42.666667h149.333334v-1.578667z m0 44.245334h-149.333334a85.333333 85.333333 0 0 1-85.333333-85.333334V64.810667l35.264-0.661334L716.8 64H148.330667a42.666667 42.666667 0 0 0-42.666667 42.666667v810.666666a42.666667 42.666667 0 0 0 42.666667 42.666667h725.333333a42.666667 42.666667 0 0 0 42.666667-42.666667V298.666667z m-138.666667 490.666666h-533.333333a10.666667 10.666667 0 0 1-10.666667-10.666666v-21.333334a10.666667 10.666667 0 0 1 10.666667-10.666666h533.333333a10.666667 10.666667 0 0 1 10.666667 10.666666v21.333334a10.666667 10.666667 0 0 1-10.666667 10.666666z m0-128h-533.333333a10.666667 10.666667 0 0 1-10.666667-10.666666v-21.333334a10.666667 10.666667 0 0 1 10.666667-10.666666h533.333333a10.666667 10.666667 0 0 1 10.666667 10.666666v21.333334a10.666667 10.666667 0 0 1-10.666667 10.666666z m-320-170.666666h-213.333333a10.666667 10.666667 0 0 1-10.666667-10.666667v-21.333333a10.666667 10.666667 0 0 1 10.666667-10.666667h213.333333a10.666667 10.666667 0 0 1 10.666667 10.666667v21.333333a10.666667 10.666667 0 0 1-10.666667 10.666667z m0-106.666667h-213.333333a10.666667 10.666667 0 0 1-10.666667-10.666667v-21.333333a10.666667 10.666667 0 0 1 10.666667-10.666667h213.333333a10.666667 10.666667 0 0 1 10.666667 10.666667v21.333333a10.666667 10.666667 0 0 1-10.666667 10.666667z m0-106.666667h-213.333333a10.666667 10.666667 0 0 1-10.666667-10.666666v-21.333334a10.666667 10.666667 0 0 1 10.666667-10.666666h213.333333a10.666667 10.666667 0 0 1 10.666667 10.666666v21.333334a10.666667 10.666667 0 0 1-10.666667 10.666666z" fill="#333333" /></svg>